<svg width="128" height="128" viewBox="0 0 128 128" fill="none" xmlns="http://www.w3.org/2000/svg">
  <rect width="128" height="128" rx="32" fill="#FFF5EC"/>
  <path d="M34 74C34 54.1177 50.1177 38 70 38C89.8823 38 106 54.1177 106 74C106 93.8823 89.8823 110 70 110C50.1177 110 34 93.8823 34 74Z" fill="#C44D56"/>
  <path d="M24 39C31 25 49 18 64 23C57 37 44 44 26 44L24 39Z" fill="#6F8F54"/>
  <path d="M58 16C71 9 87 13 96 25C81 32 68 32 56 23L58 16Z" fill="#7FA562"/>
  <circle cx="61" cy="74" r="4" fill="#FFF3E3"/>
  <circle cx="74" cy="66" r="4" fill="#FFF3E3"/>
  <circle cx="82" cy="80" r="4" fill="#FFF3E3"/>
  <circle cx="69" cy="90" r="4" fill="#FFF3E3"/>
</svg>
