<svg width="1200" height="900" viewBox="0 0 1200 900" fill="none" xmlns="http://www.w3.org/2000/svg">
  <rect width="1200" height="900" rx="42" fill="#FFF5ED"/>
  <rect x="70" y="90" width="1060" height="720" rx="34" fill="#F7EEDC"/>
  <rect x="120" y="610" width="960" height="120" rx="26" fill="#DCE9C7"/>
  <ellipse cx="290" cy="560" rx="130" ry="110" fill="#C5525C"/>
  <ellipse cx="520" cy="520" rx="150" ry="130" fill="#D45E67"/>
  <ellipse cx="760" cy="555" rx="132" ry="114" fill="#B84651"/>
  <ellipse cx="930" cy="505" rx="108" ry="96" fill="#CC5963"/>
  <path d="M230 420C250 360 320 330 376 348C361 393 323 441 254 448L230 420Z" fill="#6D8E53"/>
  <path d="M462 372C495 305 602 287 657 339C626 388 560 435 483 425L462 372Z" fill="#6D8E53"/>
  <path d="M714 402C761 335 847 314 897 355C861 416 801 447 729 446L714 402Z" fill="#6D8E53"/>
  <circle cx="287" cy="555" r="12" fill="#FFF4E3"/>
  <circle cx="515" cy="514" r="14" fill="#FFF4E3"/>
  <circle cx="763" cy="550" r="12" fill="#FFF4E3"/>
  <circle cx="928" cy="500" r="10" fill="#FFF4E3"/>
  <text x="120" y="180" fill="#923640" font-family="Pretendard, Apple SD Gothic Neo, Malgun Gothic, sans-serif" font-size="58" font-weight="800">하늘의별딸기</text>
  <text x="120" y="250" fill="#5B554D" font-family="Pretendard, Apple SD Gothic Neo, Malgun Gothic, sans-serif" font-size="30" font-weight="600">가족이 함께 머무는 따뜻한 딸기 체험 농장</text>
</svg>
